<svg xmlns="http://www.w3.org/2000/svg" width="27" height="25.059"><path d="M25.63 17.839c-.665-.332-3.931-1.938-4.539-2.16s-1.052-.332-1.495.332-1.716 2.161-2.1 2.6-.775.5-1.439.166a18.121 18.121 0 01-5.342-3.3 20.008 20.008 0 01-3.7-4.6c-.387-.665-.041-1.024.292-1.356.3-.3.664-.775 1-1.163a4.562 4.562 0 00.665-1.108 1.223 1.223 0 00-.056-1.163c-.166-.333-1.5-3.6-2.048-4.931-.539-1.3-1.087-1.12-1.495-1.14-.387-.02-.83-.024-1.273-.024a2.441 2.441 0 00-1.771.831A7.449 7.449 0 00.004 6.364c0 3.268 2.38 6.426 2.712 6.869S7.4 20.384 14.064 23.261a38.321 38.321 0 003.787 1.4 9.114 9.114 0 004.184.263c1.277-.191 3.931-1.607 4.484-3.158a5.549 5.549 0 00.388-3.158c-.17-.27-.613-.436-1.277-.769z" fill="#FFF"/></svg>